<?xml version="1.0" encoding="utf-8"?>
<!-- Generator: Adobe Illustrator 24.2.3, SVG Export Plug-In . SVG Version: 6.00 Build 0)  -->
<svg version="1.1" id="Layer_1" xmlns="http://www.w3.org/2000/svg" xmlns:xlink="http://www.w3.org/1999/xlink" x="0px" y="0px"
	 viewBox="0 0 464.9 200" style="enable-background:new 0 0 464.9 200;" xml:space="preserve">
<style type="text/css">
	.st0{fill:#FFFFFF;}
</style>
<path d="M137.8,95.7V62.8h7.2v32.9H137.8z"/>
<path d="M176.6,62.8h7.2v32.9h-10.3L159,72.1h-0.8v23.6H151V62.8h9.7l0,0h0.6l14.4,23.6h0.8L176.6,62.8z"/>
<path d="M188,62.8h32v6.5h-12.4v26.4h-7.2V69.3H188V62.8z"/>
<path d="M251.4,62.8v6.5h-19.9V76h19.9v6.5h-19.9v6.7h19.9v6.6h-27.1V62.8H251.4z"/>
<path d="M280.8,83.1l6.3,12.6h-7.8l-5.3-11c-0.7,0-1.3,0-1.8,0h-7.6v11h-7.2V62.8h7.2l0,0h8.9c4,0,12.8,0,12.8,11
	C286.3,79.5,283.8,81.6,280.8,83.1z M279.6,73.8c0-4.6-4.3-4.6-6.5-4.6h-8.5v9.2h8.4C275,78.4,279.6,78.4,279.6,73.8z"/>
<path d="M166.6,122.2c0,12.3-10.9,11.8-14.1,11.8h-7.6v9.2h-7.2v-32.9h7.2l0,0h7.6C156.5,110.4,166.6,110.4,166.6,122.2z
	 M159.9,122.2c0-5.7-4.6-5.7-7-5.7h-8v11.3h7.9C154.7,127.9,159.9,128.2,159.9,122.2L159.9,122.2z"/>
<path d="M194.6,130.6l6.3,12.6h-7.8l-5.3-11c-0.7,0-1.3,0-1.8,0h-7.6v11h-7.2v-32.9h7.2l0,0h8.9c4,0,12.8,0,12.8,11
	C200.1,127.1,197.6,129.1,194.6,130.6z M193.5,121.3c0-4.6-4.3-4.6-6.6-4.6h-8.5v9.2h8.4C188.9,125.9,193.5,126,193.5,121.3
	L193.5,121.3z"/>
<path d="M238.6,126.6c0,10.8-7.3,16.7-16.9,16.7s-16.9-5.7-16.9-16.7c0-10.8,7.3-16.7,16.9-16.7S238.6,115.7,238.6,126.6z
	 M231.6,126.6c0-6.4-4.2-9.4-9.9-9.4s-9.9,2.9-9.9,9.4c0,6.5,4.2,9.4,9.9,9.4S231.6,132.9,231.6,126.6L231.6,126.6z"/>
<path d="M241.9,110.4h32v6.5h-12.4v26.4h-7.2v-26.4h-12.4V110.4z"/>
<path d="M310.9,126.6c0,10.8-7.3,16.7-16.9,16.7s-16.9-5.7-16.9-16.7c0-10.8,7.3-16.7,16.9-16.7S310.9,115.7,310.9,126.6z
	 M303.9,126.6c0-6.4-4.2-9.4-9.9-9.4s-9.9,2.9-9.9,9.4c0,6.5,4.2,9.4,9.9,9.4S303.9,132.9,303.9,126.6L303.9,126.6z"/>
<path d="M340.7,130.8h7.5c-0.6,7.4-7,12.5-16.2,12.5c-9.5,0-16.7-5.7-16.7-16.7c0-10.8,7.2-16.7,16.7-16.7c9.2,0,15.8,5.5,16.2,12.5
	h-7.4c-1-3.5-3.5-5.2-8.8-5.2c-5.6,0-9.5,2.9-9.5,9.4c0,6.5,3.9,9.4,9.5,9.4S339.8,134,340.7,130.8L340.7,130.8z"/>
<path d="M386.1,126.6c0,10.8-7.3,16.7-16.9,16.7s-16.9-5.7-16.9-16.7c0-10.8,7.3-16.7,16.9-16.7S386.1,115.7,386.1,126.6z
	 M379.1,126.6c0-6.4-4.2-9.4-9.9-9.4s-9.9,2.9-9.9,9.4c0,6.5,4.2,9.4,9.9,9.4S379.1,132.9,379.1,126.6L379.1,126.6z"/>
<path d="M398.5,136.8h19.9v6.5h-27.1v-32.9h7.2V136.8z"/>
<path d="M414.3,110.7h5.5v1.1h-2.1v4.6h-1.2v-4.6h-2.1L414.3,110.7z"/>
<path d="M427.7,110.7v5.7h-1.2v-4.2h-0.1l-1.1,4.2h-1.8l-1.1-4.2h-0.1v4.2H421v-5.7h2.1l1.1,4.5h0.1l1.1-4.5H427.7L427.7,110.7z"/>
<path d="M103.6,101c-0.6-2.1-2.8-3.4-4.9-2.8c-0.6,0.2-1.2,0.5-1.6,0.9l-0.1,0.1c-1.1,1-1.6,2.6-1.1,4.1c0.6,2.2,1,4.5,0.9,6.7v17.9
	c0,12.9-9.5,24.1-22.4,25.4c-13.6,1.3-25.7-8.7-27-22.3c-0.1-0.8-0.1-1.5-0.1-2.3v-18.1c0-12.2,8.5-22.9,20.5-24.9
	c4.6-0.8,9.2-0.3,13.5,1.5c1.4,0.6,3,0.3,4.1-0.7l0.1-0.1c1.7-1.5,1.8-4,0.4-5.6c-0.4-0.5-0.9-0.8-1.5-1c-5.3-2.2-11.2-3-16.9-2.2
	c-16.4,2.2-28.4,16.7-28.4,33.2v17.1c0,18.4,15,34,33.4,33.7c17.9-0.3,32.3-14.9,32.3-32.8V110C104.8,107,104.4,103.9,103.6,101z
	 M47,82.2L47,82.2c1.2-1.1,1.6-2.6,1.2-4.1c-1-3.5-1.2-7.2-0.6-10.8c2.2-13.5,15-22.6,28.5-20.4s22.6,15,20.4,28.5
	c-1.8,10.9-10.7,19.3-21.7,20.6c-4.1,0.5-8.3-0.1-12.1-1.7c-1.4-0.6-3-0.3-4.1,0.7h-0.1c-1.7,1.5-1.8,4-0.4,5.6
	c0.4,0.5,0.9,0.8,1.5,1c5.7,2.4,12,3.1,18.1,2c17.9-3.2,29.8-20.2,26.7-38.1S84.2,35.8,66.3,38.9C48.4,42.1,36.5,59.1,39.7,77
	c0.2,1.1,0.5,2.3,0.8,3.4c0.6,2.1,2.9,3.3,5,2.7C46,82.9,46.5,82.6,47,82.2z"/>
</svg>
